# xmcd
#
# Track frame offsets:
#	150
#	13145
#	25555
#	38582
#	52217
#	66657
#	77817
#	89777
#	104047
#	116745
#	128552
#	144560
#	155685
#	167260
#	179870
#	194775
#
# Disc length: 2788
#
# Revision: 1
# Processed by: cddbd v1.5.1PL0 Copyright (c) Steve Scherf et al.
# Submitted via: EasyCDDAExtractor 4.6.0.1
# Normalized: r0:DSETVAR1
#
DISCID=f00ae210
DTITLE=Various Artist - Country Hits - Superstars u. Superhits
DYEAR=1900
DGENRE=Country
TTITLE0=Kenny Rogers - Ruby don´t take your love to town
TTITLE1=Frankie Laine - High Noon
TTITLE2=Lynn Anderson - Rose Garden
TTITLE3=Jonny Carver - Tie a yellow Ribbon around
TTITLE4=Bobby Bare - Leaving on a jet plane
TTITLE5=Don Gibson - Oh lonesome me
TTITLE6=Dolly Parton - Jolene
TTITLE7=John Denver - Take me home country roads
TTITLE8=Johnny Cash - Folsom Prison Blues
TTITLE9=Dave Dudley - Six days on the road
TTITLE10=Johnny Russel - Luckenbach Texas
TTITLE11=Stonewall Jackson - Waterloo
TTITLE12=Donna Fargo - The happiest girl in the USA
TTITLE13=Waylon Jennings - I´m a ramblin´man
TTITLE14=Jeannie C. Riley - Harper Valley P.T.A.
TTITLE15=Glen Campbell - Rhinestone Cowboy
EXTD=
EXTT0=
EXTT1=
EXTT2=
EXTT3=
EXTT4=
EXTT5=
EXTT6=
EXTT7=
EXTT8=
EXTT9=
EXTT10=
EXTT11=
EXTT12=
EXTT13=
EXTT14=
EXTT15=
PLAYORDER=
